HIERARCHY
ROOT Root
{
  OFFSET 0.0 0.0 0.0
  CHANNELS 6 Xposition Yposition Zposition Zrotation Yrotation Xrotation
  JOINT Hips
  {
    OFFSET 0.0 100.0 0.0
    CHANNELS 6 Xposition Yposition Zposition Zrotation Yrotation Xrotation
    JOINT Spine1
    {
      OFFSET 5.003913 -0.037094 -0.013727
      CHANNELS 3 Zrotation Yrotation Xrotation
      JOINT Spine2
      {
        OFFSET 7.125363 -1e-06 0.0
        CHANNELS 3 Zrotation Yrotation Xrotation
        JOINT Chest
        {
          OFFSET 7.594027 1e-06 0.0
          CHANNELS 3 Zrotation Yrotation Xrotation
          JOINT Neck1
          {
            OFFSET 26.313086 -0.460272 -0.181672
            CHANNELS 3 Zrotation Yrotation Xrotation
            JOINT Neck2
            {
              OFFSET 8.045911 0.0 0.0
              CHANNELS 3 Zrotation Yrotation Xrotation
              JOINT Head
              {
                OFFSET 6.432774 0.0 0.0
                CHANNELS 3 Zrotation Yrotation Xrotation
                JOINT HeadEnd
                {
                  OFFSET 16.169773 0.06451 0.00362
                  CHANNELS 3 Zrotation Yrotation Xrotation
                }
                JOINT Jaw
                {
                  OFFSET 0.108741 3.12938 0.002639
                  CHANNELS 3 Zrotation Yrotation Xrotation
                }
                JOINT LeftEye
                {
                  OFFSET 4.45173 8.166359 3.206392
                  CHANNELS 3 Zrotation Yrotation Xrotation
                }
                JOINT RightEye
                {
                  OFFSET 4.436895 8.135758 -3.222429
                  CHANNELS 3 Zrotation Yrotation Xrotation
                }
              }
            }
          }
          JOINT LeftShoulder
          {
            OFFSET 23.218927 5.195579 1.621656
            CHANNELS 3 Zrotation Yrotation Xrotation
            JOINT LeftArm
            {
              OFFSET 15.902118 2e-06 -2e-06
              CHANNELS 3 Zrotation Yrotation Xrotation
              JOINT LeftForeArm
              {
                OFFSET 28.739307 0.0 -1e-06
                CHANNELS 3 Zrotation Yrotation Xrotation
                JOINT LeftHand
                {
                  OFFSET 27.093981 -4e-06 0.0
                  CHANNELS 3 Zrotation Yrotation Xrotation
                  JOINT LeftHandThumb1
                  {
                    OFFSET 2.276781 3.380274 0.83384
                    CHANNELS 3 Zrotation Yrotation Xrotation
                    JOINT LeftHandThumb2
                    {
                      OFFSET 4.705309 -1e-06 -1e-06
                      CHANNELS 3 Zrotation Yrotation Xrotation
                      JOINT LeftHandThumb3
                      {
                        OFFSET 2.798515 0.0 3e-06
                        CHANNELS 3 Zrotation Yrotation Xrotation
                        JOINT LeftHandThumbEnd
                        {
                          OFFSET 3.180793 4e-06 -4e-06
                          CHANNELS 3 Zrotation Yrotation Xrotation
                        }
                      }
                    }
                  }
                  JOINT LeftHandIndex1
                  {
                    OFFSET 3.247786 2.352677 0.137192
                    CHANNELS 3 Zrotation Yrotation Xrotation
                    JOINT LeftHandIndex2
                    {
                      OFFSET 6.367095 1e-06 0.0
                      CHANNELS 3 Zrotation Yrotation Xrotation
                      JOINT LeftHandIndex3
                      {
                        OFFSET 3.662364 0.0 0.0
                        CHANNELS 3 Zrotation Yrotation Xrotation
                        JOINT LeftHandIndex4
                        {
                          OFFSET 2.329242 4e-06 -4e-06
                          CHANNELS 3 Zrotation Yrotation Xrotation
                          JOINT LeftHandIndexEnd
                          {
                            OFFSET 2.767823 1e-06 0.0
                            CHANNELS 3 Zrotation Yrotation Xrotation
                          }
                        }
                      }
                    }
                  }
                  JOINT LeftHandMiddle1
                  {
                    OFFSET 3.163612 0.945023 -0.406112
                    CHANNELS 3 Zrotation Yrotation Xrotation
                    JOINT LeftHandMiddle2
                    {
                      OFFSET 6.276789 3e-06 0.0
                      CHANNELS 3 Zrotation Yrotation Xrotation
                      JOINT LeftHandMiddle3
                      {
                        OFFSET 4.35652 -1e-06 4e-06
                        CHANNELS 3 Zrotation Yrotation Xrotation
                        JOINT LeftHandMiddle4
                        {
                          OFFSET 2.996877 0.0 8e-06
                          CHANNELS 3 Zrotation Yrotation Xrotation
                          JOINT LeftHandMiddleEnd
                          {
                            OFFSET 2.323256 3e-06 -4e-06
                            CHANNELS 3 Zrotation Yrotation Xrotation
                          }
                        }
                      }
                    }
                  }
                  JOINT LeftHandRing1
                  {
                    OFFSET 2.882606 -0.309162 0.107445
                    CHANNELS 3 Zrotation Yrotation Xrotation
                    JOINT LeftHandRing2
                    {
                      OFFSET 6.033198 0.0 4e-06
                      CHANNELS 3 Zrotation Yrotation Xrotation
                      JOINT LeftHandRing3
                      {
                        OFFSET 4.350578 3e-06 0.0
                        CHANNELS 3 Zrotation Yrotation Xrotation
                        JOINT LeftHandRing4
                        {
                          OFFSET 2.651321 2e-06 -7e-06
                          CHANNELS 3 Zrotation Yrotation Xrotation
                          JOINT LeftHandRingEnd
                          {
                            OFFSET 1.937663 1e-06 -4e-06
                            CHANNELS 3 Zrotation Yrotation Xrotation
                          }
                        }
                      }
                    }
                  }
                  JOINT LeftHandPinky1
                  {
                    OFFSET 2.865315 -1.525436 0.575687
                    CHANNELS 3 Zrotation Yrotation Xrotation
                    JOINT LeftHandPinky2
                    {
                      OFFSET 5.54936 1e-06 -8e-06
                      CHANNELS 3 Zrotation Yrotation Xrotation
                      JOINT LeftHandPinky3
                      {
                        OFFSET 3.070974 0.0 -4e-06
                        CHANNELS 3 Zrotation Yrotation Xrotation
                        JOINT LeftHandPinky4
                        {
                          OFFSET 1.549672 1e-06 0.0
                          CHANNELS 3 Zrotation Yrotation Xrotation
                          JOINT LeftHandPinkyEnd
                          {
                            OFFSET 1.952123 0.0 0.0
                            CHANNELS 3 Zrotation Yrotation Xrotation
                          }
                        }
                      }
                    }
                  }
                }
              }
            }
          }
          JOINT RightShoulder
          {
            OFFSET 23.161716 5.296122 -1.380114
            CHANNELS 3 Zrotation Yrotation Xrotation
            JOINT RightArm
            {
              OFFSET -16.027195 -2e-06 1.1e-05
              CHANNELS 3 Zrotation Yrotation Xrotation
              JOINT RightForeArm
              {
                OFFSET -28.736639 4e-06 2e-06
                CHANNELS 3 Zrotation Yrotation Xrotation
                JOINT RightHand
                {
                  OFFSET -27.133619 6e-06 0.0
                  CHANNELS 3 Zrotation Yrotation Xrotation
                  JOINT RightHandThumb1
                  {
                    OFFSET -2.274328 -3.351035 -0.83067
                    CHANNELS 3 Zrotation Yrotation Xrotation
                    JOINT RightHandThumb2
                    {
                      OFFSET -4.703594 -3e-06 2e-06
                      CHANNELS 3 Zrotation Yrotation Xrotation
                      JOINT RightHandThumb3
                      {
                        OFFSET -2.794935 -4e-06 -3e-06
                        CHANNELS 3 Zrotation Yrotation Xrotation
                        JOINT RightHandThumbEnd
                        {
                          OFFSET -3.183852 4e-06 1e-06
                          CHANNELS 3 Zrotation Yrotation Xrotation
                        }
                      }
                    }
                  }
                  JOINT RightHandIndex1
                  {
                    OFFSET -3.253496 -2.33755 -0.127667
                    CHANNELS 3 Zrotation Yrotation Xrotation
                    JOINT RightHandIndex2
                    {
                      OFFSET -6.344434 0.0 0.0
                      CHANNELS 3 Zrotation Yrotation Xrotation
                      JOINT RightHandIndex3
                      {
                        OFFSET -3.654871 0.0 -8e-06
                        CHANNELS 3 Zrotation Yrotation Xrotation
                        JOINT RightHandIndex4
                        {
                          OFFSET -2.327586 -1e-06 0.0
                          CHANNELS 3 Zrotation Yrotation Xrotation
                          JOINT RightHandIndexEnd
                          {
                            OFFSET -2.770001 3e-06 8e-06
                            CHANNELS 3 Zrotation Yrotation Xrotation
                          }
                        }
                      }
                    }
                  }
                  JOINT RightHandMiddle1
                  {
                    OFFSET -3.168223 -0.944764 0.411762
                    CHANNELS 3 Zrotation Yrotation Xrotation
                    JOINT RightHandMiddle2
                    {
                      OFFSET -6.266691 -1e-06 -4e-06
                      CHANNELS 3 Zrotation Yrotation Xrotation
                      JOINT RightHandMiddle3
                      {
                        OFFSET -4.348901 0.0 0.0
                        CHANNELS 3 Zrotation Yrotation Xrotation
                        JOINT RightHandMiddle4
                        {
                          OFFSET -3.00024 2e-06 -4e-06
                          CHANNELS 3 Zrotation Yrotation Xrotation
                          JOINT RightHandMiddleEnd
                          {
                            OFFSET -2.321477 -4e-06 -4e-06
                            CHANNELS 3 Zrotation Yrotation Xrotation
                          }
                        }
                      }
                    }
                  }
                  JOINT RightHandRing1
                  {
                    OFFSET -2.885654 0.293261 -0.119232
                    CHANNELS 3 Zrotation Yrotation Xrotation
                    JOINT RightHandRing2
                    {
                      OFFSET -6.032835 -1e-06 -4e-06
                      CHANNELS 3 Zrotation Yrotation Xrotation
                      JOINT RightHandRing3
                      {
                        OFFSET -4.33881 0.0 -4e-06
                        CHANNELS 3 Zrotation Yrotation Xrotation
                        JOINT RightHandRing4
                        {
                          OFFSET -2.654903 -4e-06 -4e-06
                          CHANNELS 3 Zrotation Yrotation Xrotation
                          JOINT RightHandRingEnd
                          {
                            OFFSET -1.935122 0.0 4e-06
                            CHANNELS 3 Zrotation Yrotation Xrotation
                          }
                        }
                      }
                    }
                  }
                  JOINT RightHandPinky1
                  {
                    OFFSET -2.866241 1.503904 -0.60527
                    CHANNELS 3 Zrotation Yrotation Xrotation
                    JOINT RightHandPinky2
                    {
                      OFFSET -5.553177 -2e-06 0.0
                      CHANNELS 3 Zrotation Yrotation Xrotation
                      JOINT RightHandPinky3
                      {
                        OFFSET -3.062664 -1e-06 -4e-06
                        CHANNELS 3 Zrotation Yrotation Xrotation
                        JOINT RightHandPinky4
                        {
                          OFFSET -1.546529 2e-06 4e-06
                          CHANNELS 3 Zrotation Yrotation Xrotation
                          JOINT RightHandPinkyEnd
                          {
                            OFFSET -1.952341 0.0 -4e-06
                            CHANNELS 3 Zrotation Yrotation Xrotation
                          }
                        }
                      }
                    }
                  }
                }
              }
            }
          }
        }
      }
    }
    JOINT LeftLeg
    {
      OFFSET -8.443107 2.567604 10.043214
      CHANNELS 3 Zrotation Yrotation Xrotation
      JOINT LeftShin
      {
        OFFSET 43.229198 1e-06 -1e-06
        CHANNELS 3 Zrotation Yrotation Xrotation
        JOINT LeftFoot
        {
          OFFSET 42.298611 1e-06 1e-06
          CHANNELS 3 Zrotation Yrotation Xrotation
          JOINT LeftToeBase
          {
            OFFSET 14.165858 1e-06 0.0
            CHANNELS 3 Zrotation Yrotation Xrotation
            JOINT LeftToeEnd
            {
              OFFSET 6.7141 -0.234461 0.0
              CHANNELS 3 Zrotation Yrotation Xrotation
            }
          }
        }
      }
    }
    JOINT RightLeg
    {
      OFFSET -8.303923 2.592729 -10.047278
      CHANNELS 3 Zrotation Yrotation Xrotation
      JOINT RightShin
      {
        OFFSET -43.369682 0.0 1e-06
        CHANNELS 3 Zrotation Yrotation Xrotation
        JOINT RightFoot
        {
          OFFSET -42.260784 4e-06 2e-06
          CHANNELS 3 Zrotation Yrotation Xrotation
          JOINT RightToeBase
          {
            OFFSET -14.222245 -2e-06 -1e-06
            CHANNELS 3 Zrotation Yrotation Xrotation
            JOINT RightToeEnd
            {
              OFFSET -6.660062 0.232574 -2e-06
              CHANNELS 3 Zrotation Yrotation Xrotation
            }
          }
        }
      }
    }
  }
}
MOTION
Frames: 5
Frame Time: 0.03333333333333333
0.0 0.0 0.0 0.0 -0.0 0.0 -19.655071 96.845451 315.11969 90.379234 1.305825 92.731171 8.549607 1.596244 -0.373673 -8.269258 0.240918 -2.097171 14.582022 1.91011 -4.365139 16.513994 2.241528 3.52049 -2.524166 -1.317079 -1.56605 -27.206972 -1.9139 -1.666124 6e-06 0.0 0.0 -0.012664 -0.020445 0.021207 -0.091024 0.025651 0.029039 -0.071872 -0.068754 0.016827 -28.396858 -76.660141 41.72443 20.766819 -38.429237 8.052921 81.01049 1.013993 -0.47799 -2.751852 8.665851 14.260745 17.636631 -26.322727 52.411201 -19.466658 -14.395598 29.410389 1e-06 -8.774821 -1e-06 15.671927 -17.649916 6.510282 -0.609777 -1.795653 -3.889328 -4.807089 -11.046811 -2.93785 4e-06 -20.976019 -1e-06 -5.01997 -25.03356 -4.031881 6e-06 -0.0 -1e-06 -10.634535 -5.686971 -3.565588 10.573272 -17.922953 -3.113901 3e-06 -13.821209 0.0 -0.501776 -31.181505 -4.027017 -11.28699 -58.648628 7.791075 -13.982715 -7.150199 -2.875042 13.772728 -8.401493 -3.218243 0.347734 -34.211544 0.771654 -0.963028 -17.733368 2.621019 0.0 1e-06 0.0 -17.346422 -20.095221 -4.20178 21.757561 -1.638373 3.866428 1e-06 -6.338825 -0.0 -1.697588 -22.591742 -6.194007 -1e-06 -4e-06 -2e-06 165.621765 -72.50766 23.35253 10.13939 -50.602585 2.970823 76.546783 0.928774 0.255311 -3.118985 38.240162 -4.958445 22.182106 -20.375895 49.933319 -16.701813 -16.74353 28.476536 -2e-06 -12.690598 -1e-06 15.132545 -17.301865 2.541965 -0.105921 -1.513855 -4.275883 -5.039038 -5.61287 -2.953555 3e-06 -11.020523 -4e-06 -6.111297 -15.89533 -3.840468 -0.0 -1e-06 -1e-06 -10.283369 -5.680289 -4.341839 11.02829 -11.302402 -2.372634 -1.384268 -14.238579 -6.320122 -0.625437 -26.924185 -3.827599 -4.030506 -49.275043 -3.513177 -13.708524 -7.363477 -3.720942 18.141146 -14.052739 -3.242674 6e-06 -18.787268 1e-06 -0.429711 -8.456042 2.555504 1e-06 0.0 1e-06 -15.923532 -20.094482 -5.473584 30.41921 -7.190824 1.735926 3e-06 -8.162925 -2e-06 -1.861905 -22.861469 -6.16794 1e-06 -1e-06 -1e-06 174.242828 -0.150785 -7.39602 63.086845 -0.271545 0.118474 -68.930603 -2.290067 2.935131 -21.595299 1.898415 2.109943 -0.999999 -0.0 -0.0 -38.375748 -2.254545 -17.750746 39.976982 0.366631 -0.359426 -37.623699 -10.283478 -3.140071 -6.628406 0.552583 1.554692 -1.000006 0.0 0.0 
0.0 0.0 0.0 0.0 -0.0 0.0 -19.784698 97.478233 318.579468 90.57267 1.113333 92.98996 8.909686 1.734368 -0.293628 -8.263015 0.301627 -2.372535 14.986337 2.246414 -4.503693 16.39855 2.484927 3.348627 -2.495784 -1.271965 -1.548654 -27.141766 -2.138845 -1.343097 6e-06 -0.0 -0.0 -0.009818 -0.019027 0.043152 -0.09177 0.02427 0.047306 -0.058302 -0.067941 0.043635 -28.825619 -77.412636 42.329727 20.493801 -36.501652 8.458817 81.626343 0.536338 -0.410196 -2.395048 8.869761 14.508746 17.636629 -26.322729 52.41119 -19.46666 -14.3956 29.410389 -1e-06 -8.774822 -2e-06 15.768715 -17.72422 6.401669 -0.609776 -1.795656 -3.889327 -4.807089 -11.046807 -2.937849 4e-06 -20.976013 0.0 -5.01997 -25.033554 -4.03188 6e-06 0.0 -0.0 -10.634535 -5.686971 -3.565588 10.573272 -17.922947 -3.113899 2e-06 -13.821205 1e-06 -0.50178 -31.181498 -4.027014 -11.785867 -58.689194 8.097742 -13.982715 -7.150198 -2.875041 13.772731 -8.401491 -3.218241 0.347732 -34.211552 0.771656 -0.96303 -17.73337 2.62102 -0.0 0.0 0.0 -17.34642 -20.095217 -4.20178 21.757559 -1.638372 3.866428 1e-06 -6.338821 1e-06 -1.697592 -22.591743 -6.194005 0.0 -4e-06 -3e-06 157.399734 -74.579796 33.108501 4.274211 -48.027676 12.593635 84.287346 1.032209 0.363415 -1.500045 34.582504 -2.992446 22.182112 -20.375893 49.933319 -16.701807 -16.74353 28.476528 0.0 -12.690601 -2e-06 15.767627 -17.680378 2.126505 -0.105918 -1.513857 -4.27588 -5.039041 -5.61287 -2.953555 1e-06 -11.020525 -2e-06 -6.111298 -15.895334 -3.840469 -1e-06 -0.0 -2e-06 -10.283371 -5.680288 -4.341836 11.028291 -11.302404 -2.372629 -1.38427 -14.238577 -6.320121 -0.625445 -26.924191 -3.827597 -4.079629 -49.608849 -3.473232 -13.708524 -7.363478 -3.720938 18.141148 -14.052736 -3.242672 5e-06 -18.78727 -1e-06 -0.429714 -8.456044 2.555503 -1e-06 2e-06 2e-06 -15.923541 -20.094484 -5.47358 30.41921 -7.190821 1.735929 1e-06 -8.162925 -1e-06 -1.861905 -22.861471 -6.167942 -1e-06 -2e-06 -2e-06 168.63916 -1.06862 -9.033669 74.627792 0.037124 -0.038492 -67.335976 -5.039356 2.857674 -13.397359 1.719797 2.153805 -0.999998 -0.0 0.0 -35.86779 -1.348357 -16.321884 38.975151 0.307817 -0.315292 -43.956631 -9.806897 -0.327203 -7.094939 0.560022 1.587136 -1.000002 0.0 -0.0 
0.0 0.0 0.0 0.0 -0.0 0.0 -19.909275 97.799278 321.985413 90.434349 0.723497 92.912582 9.162654 1.920722 -0.137008 -8.218487 0.343027 -2.514396 15.505006 2.746382 -4.408621 16.372433 2.348602 2.872564 -2.472614 -1.276613 -1.280939 -28.142029 -2.197122 -0.750901 6e-06 -0.0 0.0 -0.048238 -0.019477 0.053858 -0.097467 0.040422 0.056239 -0.069791 -0.087574 0.060995 -29.844311 -77.694199 43.757404 20.844219 -34.723385 9.092677 83.213852 -0.185684 -0.327256 -1.428045 8.793436 14.24535 17.636625 -26.322729 52.411194 -19.466665 -14.395598 29.410393 -2e-06 -8.774822 -2e-06 15.682856 -17.998898 6.484039 -0.609776 -1.795653 -3.889327 -4.807088 -11.046809 -2.93785 6e-06 -20.976015 -2e-06 -5.019969 -25.033556 -4.031881 6e-06 -1e-06 -0.0 -10.634533 -5.686972 -3.565587 10.573275 -17.922945 -3.113902 4e-06 -13.821205 1e-06 -0.501777 -31.181498 -4.027015 -12.035365 -58.803673 7.96866 -13.982713 -7.150198 -2.875042 13.77273 -8.401491 -3.218241 0.347735 -34.211544 0.771653 -0.963028 -17.733366 2.62102 1e-06 -0.0 -0.0 -17.346416 -20.095213 -4.201784 21.757557 -1.638376 3.866427 1e-06 -6.338824 1e-06 -1.697589 -22.591742 -6.194006 0.0 -4e-06 -2e-06 143.714661 -76.679657 48.809067 -1.312021 -45.248299 20.591318 89.463867 0.573988 0.768075 0.948096 28.771587 -4.045603 22.182106 -20.375887 49.933308 -16.701807 -16.743525 28.476522 -1e-06 -12.690599 -2e-06 15.437029 -17.730412 2.199321 -0.105921 -1.513856 -4.275881 -5.03904 -5.612868 -2.953555 6e-06 -11.02052 -4e-06 -6.111294 -15.895328 -3.840473 -2e-06 -0.0 -1e-06 -10.283366 -5.680287 -4.341837 11.028287 -11.302404 -2.372635 -1.384268 -14.238575 -6.320118 -0.625435 -26.924179 -3.827602 -4.221636 -49.34351 -3.431402 -13.70852 -7.363472 -3.720938 18.141146 -14.052736 -3.242675 7e-06 -18.787266 -2e-06 -0.429714 -8.45604 2.555504 1e-06 0.0 -1e-06 -15.92353 -20.094477 -5.473586 30.419201 -7.190825 1.735926 4e-06 -8.162922 -2e-06 -1.8619 -22.861464 -6.167943 -1e-06 -3e-06 -2e-06 162.609818 -2.099009 -10.360511 85.416451 0.488707 -0.274209 -70.344002 -9.445626 2.876134 -9.762234 1.712363 2.25699 -0.999998 0.0 0.0 -33.489037 -0.584668 -16.205769 38.444225 0.284067 -0.361877 -50.937374 -8.485212 1.958431 -7.241884 0.635105 1.617785 -1.000002 -0.0 0.0 
0.0 0.0 0.0 0.0 -0.0 0.0 -20.047232 98.146385 325.497528 89.681969 0.337698 92.530342 9.408767 2.149397 0.013737 -8.112329 0.409262 -2.579017 16.257116 3.520519 -4.35948 16.028444 2.08312 2.696177 -2.430663 -1.184829 -0.845628 -28.769823 -2.394884 -0.024432 6e-06 -0.0 0.0 -0.065475 -0.01752 0.01994 -0.111975 0.022864 0.020093 -0.084364 -0.068237 0.030582 -32.013222 -77.493828 46.320259 21.746141 -34.015991 9.539914 84.670418 -0.665415 -0.197865 -0.509651 8.945253 15.390059 17.636641 -26.322741 52.411213 -19.466665 -14.395598 29.410395 -1e-06 -8.774823 -3e-06 15.712673 -18.115261 6.482889 -0.609777 -1.795652 -3.889328 -4.80709 -11.046814 -2.937851 5e-06 -20.976019 -0.0 -5.01997 -25.033562 -4.031882 6e-06 -0.0 1e-06 -10.634538 -5.686971 -3.565589 10.573277 -17.922955 -3.113901 3e-06 -13.821213 1e-06 -0.501778 -31.181511 -4.027017 -12.264046 -59.092823 8.05702 -13.982718 -7.150199 -2.875044 13.772733 -8.401495 -3.218241 0.347736 -34.211555 0.771655 -0.963029 -17.733372 2.621021 -0.0 -0.0 -0.0 -17.346424 -20.095222 -4.201784 21.757563 -1.638376 3.866431 2e-06 -6.338824 0.0 -1.69759 -22.591751 -6.194008 0.0 -4e-06 -2e-06 126.947922 -77.992599 67.389038 -6.138544 -44.355114 26.211187 89.558449 -0.314162 1.43019 1.740384 23.871252 -8.18595 22.182112 -20.375887 49.933304 -16.701811 -16.74353 28.476524 -1e-06 -12.690601 -1e-06 15.261756 -17.576279 2.296671 -0.105917 -1.513853 -4.275882 -5.039041 -5.612871 -2.953555 4e-06 -11.02052 -2e-06 -6.1113 -15.895332 -3.840469 2e-06 -0.0 -0.0 -10.283371 -5.680288 -4.34184 11.028292 -11.302405 -2.372633 -1.384268 -14.23858 -6.320118 -0.625437 -26.924187 -3.827601 -4.00519 -48.895004 -3.686656 -13.708527 -7.363474 -3.720937 18.14115 -14.052738 -3.242675 6e-06 -18.78727 -3e-06 -0.429709 -8.456043 2.555503 -1e-06 -0.0 -0.0 -15.923539 -20.094484 -5.473585 30.419218 -7.190823 1.735927 -1e-06 -8.162925 -0.0 -1.861905 -22.861469 -6.167944 0.0 -1e-06 0.0 156.482758 -3.498225 -10.701034 92.785469 0.833286 -0.406975 -73.966797 -11.317639 3.288445 -9.04796 1.694717 2.312381 -0.999998 0.0 0.0 -31.68412 0.307934 -16.933453 39.01675 0.212222 -0.363684 -55.124359 -7.728801 3.186101 -7.290208 0.646838 1.612441 -1.000003 -0.0 0.0 
0.0 0.0 0.0 0.0 -0.0 0.0 -20.189827 98.227272 329.044128 89.30127 0.241462 91.690048 9.744661 2.104577 0.052963 -7.917021 0.354413 -2.596148 16.752314 3.908295 -4.197334 15.922334 1.782641 2.772614 -2.396452 -1.068253 -0.454889 -28.904654 -2.554587 0.375038 6e-06 0.0 0.0 -0.059894 -0.010861 0.010492 -0.134919 0.008115 0.008843 -0.105222 -0.042186 0.025057 -33.015316 -77.267952 47.650925 21.936674 -33.826889 10.403854 85.937782 -0.941259 -0.146859 -0.031899 9.50524 16.747057 17.636623 -26.322737 52.411205 -19.466663 -14.395598 29.410395 0.0 -8.774821 -2e-06 15.732177 -18.244972 6.552013 -0.609776 -1.795654 -3.889328 -4.807087 -11.04681 -2.937851 5e-06 -20.976017 -0.0 -5.019969 -25.033556 -4.03188 6e-06 0.0 0.0 -10.634533 -5.686973 -3.565588 10.573275 -17.922951 -3.113902 3e-06 -13.821208 1e-06 -0.501777 -31.181505 -4.027014 -12.220972 -59.366135 8.11945 -13.982712 -7.150196 -2.875043 13.772728 -8.401493 -3.218242 0.347733 -34.211544 0.771655 -0.963028 -17.73337 2.62102 -0.0 0.0 0.0 -17.346416 -20.095213 -4.201784 21.757557 -1.638378 3.866427 2e-06 -6.338822 0.0 -1.697588 -22.59174 -6.194005 -0.0 -4e-06 -2e-06 113.31369 -78.243889 82.647751 -10.303809 -46.17001 29.884066 84.501778 -1.153227 2.215246 0.848303 21.289158 -12.784408 22.182116 -20.3759 49.933346 -16.701822 -16.743536 28.47654 -4e-06 -12.690607 -1e-06 15.687586 -17.686457 2.351278 -0.105922 -1.513858 -4.275884 -5.039044 -5.612873 -2.953557 5e-06 -11.020527 -2e-06 -6.111297 -15.895338 -3.840472 0.0 -1e-06 -1e-06 -10.283379 -5.680292 -4.341839 11.028299 -11.30241 -2.372635 -1.384264 -14.238586 -6.320127 -0.625435 -26.924206 -3.827604 -3.996905 -49.278992 -3.799395 -13.708527 -7.363479 -3.720942 18.141153 -14.052745 -3.242677 7e-06 -18.787273 -4e-06 -0.429711 -8.456044 2.555503 0.0 -2e-06 1e-06 -15.923543 -20.094496 -5.473588 30.419224 -7.19083 1.735924 3e-06 -8.162929 -1e-06 -1.861897 -22.861475 -6.167948 -1e-06 -3e-06 -2e-06 150.787689 -4.249325 -10.964407 95.691139 1.008006 -0.519253 -77.075058 -11.348277 3.742488 -8.839964 1.703008 2.328471 -1.0 -1e-06 0.0 -29.945677 0.756995 -17.598558 40.465885 0.207644 -0.361563 -59.356529 -6.69088 4.204416 -7.253103 0.610842 1.595851 -1.000003 0.0 -0.0 
